<?xml version="1.0" encoding="UTF-8"?>
<svg id="Layer_1" xmlns="http://www.w3.org/2000/svg" version="1.1" viewBox="0 0 800 800">
  <!-- Generator: Adobe Illustrator 29.6.1, SVG Export Plug-In . SVG Version: 2.1.1 Build 9)  -->
  <defs>
    <style>
      .st0 {
        fill: none;
        stroke: #fff;
        stroke-linecap: round;
        stroke-linejoin: round;
        stroke-width: 66.67px;
      }
    </style>
  </defs>
  <path class="st0" d="M433.33,666.67v-66.67c0-92.05-74.62-166.67-166.67-166.67s-166.67,74.62-166.67,166.67v66.67h333.33ZM433.33,666.67h266.67v-33.33c0-98.18-74.62-166.67-166.67-166.67-47.11,0-89.66,20.85-119.97,54.37M366.67,233.33c0,55.23-44.77,100-100,100s-100-44.77-100-100,44.77-100,100-100,100,44.77,100,100ZM600,300c0,36.82-29.85,66.67-66.67,66.67s-66.67-29.85-66.67-66.67,29.85-66.67,66.67-66.67,66.67,29.85,66.67,66.67Z"/>
</svg>