<?xml version="1.0" encoding="UTF-8"?>
<svg id="Layer_1" xmlns="http://www.w3.org/2000/svg" version="1.1" viewBox="0 0 800 800">
  <!-- Generator: Adobe Illustrator 29.6.1, SVG Export Plug-In . SVG Version: 2.1.1 Build 9)  -->
  <defs>
    <style>
      .st0 {
        fill: none;
        stroke: #fff;
        stroke-linecap: round;
        stroke-linejoin: round;
        stroke-width: 66.67px;
      }
    </style>
  </defs>
  <path class="st0" d="M266.67,166.67c-32.94.03-50.21.44-63.6,7.26-12.54,6.39-22.74,16.59-29.13,29.13-7.27,14.26-7.27,32.93-7.27,70.27v320c0,37.34,0,56.01,7.27,70.27,6.39,12.54,16.59,22.74,29.13,29.13,14.26,7.27,32.93,7.27,70.27,7.27h253.33c37.34,0,56.01,0,70.27-7.27,12.54-6.39,22.74-16.59,29.13-29.13,7.27-14.26,7.27-32.93,7.27-70.27v-320c0-37.34,0-56.01-7.27-70.27-6.39-12.54-16.59-22.74-29.13-29.13-13.39-6.82-30.65-7.24-63.6-7.26M266.67,166.67v66.66h266.67v-66.66M266.67,166.67v-9.76c0-15.09,6-29.57,16.67-40.24s25.14-16.67,40.24-16.67h152.86c15.09,0,29.57,6,40.24,16.67s16.67,25.15,16.67,40.24v9.76M400,500h-100M500,366.67h-200"/>
</svg>