<?xml version="1.0" encoding="UTF-8"?>
<svg id="Layer_1" xmlns="http://www.w3.org/2000/svg" version="1.1" viewBox="0 0 800 800">
  <!-- Generator: Adobe Illustrator 29.6.1, SVG Export Plug-In . SVG Version: 2.1.1 Build 9)  -->
  <defs>
    <style>
      .st0 {
        fill: none;
        stroke: #231f20;
        stroke-linecap: round;
        stroke-linejoin: round;
        stroke-width: 66.67px;
      }
    </style>
  </defs>
  <path class="st0" d="M375.64,147.04c7.72-17.31,11.58-25.97,16.95-28.63,4.67-2.32,10.15-2.32,14.81,0,5.37,2.67,9.23,11.32,16.95,28.63l61.47,137.9c2.28,5.12,3.42,7.68,5.19,9.64,1.56,1.73,3.47,3.12,5.6,4.07,2.41,1.07,5.2,1.37,10.77,1.96l150.14,15.85c18.85,1.99,28.27,2.98,32.47,7.27,3.64,3.72,5.34,8.94,4.58,14.09-.87,5.93-7.91,12.28-21.99,24.97l-112.16,101.07c-4.16,3.75-6.24,5.63-7.56,7.91-1.17,2.02-1.9,4.27-2.14,6.59-.28,2.62.3,5.36,1.47,10.85l31.33,147.69c3.93,18.54,5.9,27.81,3.12,33.13-2.42,4.62-6.85,7.84-11.99,8.71-5.91,1-14.12-3.73-30.54-13.2l-130.78-75.43c-4.85-2.8-7.28-4.2-9.86-4.75-2.28-.48-4.64-.48-6.93,0-2.58.55-5.01,1.95-9.86,4.75l-130.78,75.43c-16.42,9.47-24.63,14.2-30.54,13.2-5.14-.87-9.57-4.09-11.99-8.71-2.78-5.31-.81-14.58,3.12-33.13l31.33-147.69c1.16-5.48,1.74-8.22,1.47-10.85-.24-2.32-.97-4.56-2.14-6.59-1.32-2.28-3.4-4.16-7.56-7.91l-112.15-101.07c-14.08-12.69-21.12-19.03-22-24.97-.76-5.15.93-10.37,4.58-14.09,4.2-4.29,13.62-5.28,32.47-7.27l150.14-15.85c5.57-.59,8.36-.88,10.77-1.96,2.13-.95,4.04-2.34,5.6-4.07,1.76-1.96,2.91-4.52,5.19-9.64l61.47-137.9h-.02Z"/>
</svg>