<?xml version="1.0" encoding="UTF-8"?>
<svg id="Layer_1" xmlns="http://www.w3.org/2000/svg" version="1.1" viewBox="0 0 800 800">
  <!-- Generator: Adobe Illustrator 29.6.1, SVG Export Plug-In . SVG Version: 2.1.1 Build 9)  -->
  <defs>
    <style>
      .st0 {
        stroke-miterlimit: 10;
      }

      .st0, .st1 {
        fill: none;
        stroke: #fff;
        stroke-width: 66.67px;
      }

      .st1 {
        stroke-linecap: round;
        stroke-linejoin: round;
      }
    </style>
  </defs>
  <path class="st1" d="M633.33,325.94v214.06c0,56,0,84.01-10.9,105.4-9.59,18.82-24.88,34.12-43.7,43.7-21.39,10.9-49.39,10.9-105.4,10.9h-146.67c-56.01,0-84.01,0-105.4-10.9-18.82-9.59-34.11-24.89-43.7-43.7-10.9-21.39-10.9-49.39-10.9-105.4v-214.09M700,400l-181.11-201.2c-41.19-45.76-61.78-68.64-86.04-77.08-21.3-7.42-44.49-7.42-65.79,0-24.25,8.45-44.84,31.33-86.03,77.1l-181.04,201.18"/>
  <rect class="st0" x="313" y="433" width="181" height="267" rx="69.5" ry="69.5"/>
</svg>