<?xml version="1.0" encoding="UTF-8"?>
<svg id="Layer_1" xmlns="http://www.w3.org/2000/svg" version="1.1" viewBox="0 0 800 800">
  <!-- Generator: Adobe Illustrator 29.6.1, SVG Export Plug-In . SVG Version: 2.1.1 Build 9)  -->
  <defs>
    <style>
      .st0 {
        fill: none;
        stroke: #fff;
        stroke-linecap: round;
        stroke-linejoin: round;
        stroke-width: 66.67px;
      }
    </style>
  </defs>
  <path class="st0" d="M133.33,466.67h89.15c16.31,0,24.46,0,32.13,1.84,6.8,1.63,13.31,4.33,19.27,7.98,6.73,4.12,12.49,9.89,24.02,21.42l4.18,4.18c11.53,11.53,17.3,17.3,24.02,21.42,5.96,3.65,12.47,6.35,19.27,7.98,7.67,1.84,15.83,1.84,32.13,1.84h44.97c16.31,0,24.46,0,32.13-1.84,6.8-1.63,13.3-4.33,19.27-7.98,6.73-4.12,12.49-9.89,24.02-21.42l4.18-4.18c11.53-11.53,17.3-17.3,24.02-21.42,5.97-3.65,12.47-6.35,19.27-7.98,7.67-1.84,15.83-1.84,32.13-1.84h89.15M240,133.33h320c37.34,0,56.01,0,70.27,7.27,12.54,6.39,22.74,16.59,29.13,29.13,7.27,14.26,7.27,32.93,7.27,70.27v320c0,37.34,0,56.01-7.27,70.27-6.39,12.54-16.59,22.74-29.13,29.13-14.26,7.27-32.93,7.27-70.27,7.27H240c-37.34,0-56.01,0-70.27-7.27-12.54-6.39-22.74-16.59-29.13-29.13-7.27-14.26-7.27-32.93-7.27-70.27V240c0-37.34,0-56.01,7.27-70.27,6.39-12.54,16.59-22.74,29.13-29.13,14.26-7.27,32.93-7.27,70.27-7.27Z"/>
</svg>