<?xml version="1.0" encoding="UTF-8"?>
<svg id="Layer_1" xmlns="http://www.w3.org/2000/svg" version="1.1" viewBox="0 0 800 800">
  <!-- Generator: Adobe Illustrator 29.6.1, SVG Export Plug-In . SVG Version: 2.1.1 Build 9)  -->
  <defs>
    <style>
      .st0 {
        fill: none;
        stroke: #000;
        stroke-linecap: round;
        stroke-linejoin: round;
        stroke-width: 66.67px;
      }
    </style>
  </defs>
  <path class="st0" d="M300.06,566.67h-113.19c-41.95,0-62.92,0-67.33-3.26-4.96-3.66-6.17-5.82-6.71-11.96-.48-5.46,12.38-26.5,38.09-68.57,26.54-43.44,49.08-106.68,49.08-196.22,0-49.51,21.07-96.99,58.58-131.99,37.51-35.01,88.38-54.67,141.42-54.67s103.91,19.67,141.42,54.67c37.51,35.01,58.58,82.49,58.58,131.99,0,89.54,22.54,152.78,49.09,196.22,25.71,42.07,38.56,63.1,38.09,68.57-.54,6.14-1.75,8.3-6.71,11.96-4.41,3.26-25.39,3.26-67.33,3.26h-113.13M300.06,566.67l-.05,33.33c0,55.23,44.77,100,100,100s100-44.77,100-100v-33.33M300.06,566.67h199.94"/>
</svg>