<?xml version="1.0" encoding="UTF-8"?>
<svg id="Layer_1" xmlns="http://www.w3.org/2000/svg" version="1.1" viewBox="0 0 800 800">
  <!-- Generator: Adobe Illustrator 29.6.1, SVG Export Plug-In . SVG Version: 2.1.1 Build 9)  -->
  <defs>
    <style>
      .st0 {
        fill: #fff;
      }
    </style>
  </defs>
  <path class="st0" d="M467.65,524.71c4.44,17.87,22.52,28.75,40.39,24.31,17.87-4.44,28.75-22.52,24.31-40.39l-64.7,16.08ZM267.65,508.63c-4.44,17.87,6.44,35.95,24.31,40.39,17.87,4.44,35.95-6.44,40.39-24.31l-64.7-16.08ZM400,283.33c-18.41,0-33.33,14.92-33.33,33.33s14.92,33.33,33.33,33.33v-66.67ZM400.33,350c18.41,0,33.33-14.92,33.33-33.33s-14.92-33.33-33.33-33.33v66.67ZM136.4,659.4l15.13-29.7-15.13,29.7ZM107.27,630.27l29.7-15.13-29.7,15.13ZM692.73,630.27l-29.7-15.13,29.7,15.13ZM663.6,659.4l-15.13-29.7,15.13,29.7ZM663.6,140.6l-15.13,29.7,15.13-29.7ZM692.73,169.73l-29.7,15.13,29.7-15.13ZM136.4,140.6l15.13,29.7-15.13-29.7ZM107.27,169.73l29.7,15.13-29.7-15.13ZM400,316.67v66.67c36.82,0,66.67-29.85,66.67-66.67h-66.67ZM400,316.67h-66.67c0,36.82,29.85,66.67,66.67,66.67v-66.67ZM400,316.67v-66.67c-36.82,0-66.67,29.85-66.67,66.67h66.67ZM400,316.67h66.67c0-36.82-29.85-66.67-66.67-66.67v66.67ZM400,483.33c38.17,0,62.8,21.85,67.65,41.37l64.7-16.08c-14.06-56.55-71.78-91.96-132.35-91.96v66.67ZM332.35,524.71c4.85-19.53,29.48-41.37,67.65-41.37v-66.67c-60.57,0-118.29,35.41-132.35,91.96l64.7,16.08ZM400,350h.33v-66.67h-.33v66.67ZM206.67,166.67h386.67v-66.67H206.67v66.67ZM666.67,240v320h66.67V240h-66.67ZM593.33,633.33H206.67v66.67h386.67v-66.67ZM133.33,560V240h-66.67v320h66.67ZM206.67,633.33c-19.22,0-31.63-.03-41.07-.8-9.06-.74-12.41-2-14.06-2.84l-30.27,59.4c12.61,6.43,25.72,8.8,38.9,9.88,12.79,1.05,28.38,1.02,46.5,1.02v-66.67ZM66.67,560c0,18.12-.03,33.71,1.02,46.5,1.08,13.18,3.45,26.29,9.88,38.9l59.4-30.27c-.84-1.65-2.1-5.01-2.84-14.06-.77-9.45-.8-21.85-.8-41.07h-66.67ZM151.53,629.7c-6.27-3.2-11.37-8.29-14.57-14.57l-59.4,30.27c9.59,18.82,24.89,34.11,43.7,43.7l30.27-59.4ZM666.67,560c0,19.22-.03,31.63-.8,41.07-.74,9.05-2,12.41-2.84,14.06l59.4,30.27c6.43-12.61,8.8-25.72,9.88-38.9,1.05-12.79,1.02-28.38,1.02-46.5h-66.67ZM593.33,700c18.12,0,33.71.03,46.5-1.02,13.18-1.08,26.29-3.45,38.9-9.88l-30.27-59.4c-1.65.84-5.01,2.1-14.06,2.84-9.45.77-21.85.8-41.07.8v66.67ZM663.03,615.13c-3.2,6.27-8.29,11.37-14.57,14.57l30.27,59.4c18.82-9.59,34.11-24.88,43.7-43.7l-59.4-30.27ZM593.33,166.67c19.22,0,31.63.03,41.07.8,9.05.74,12.41,2,14.06,2.84l30.27-59.4c-12.61-6.43-25.72-8.8-38.9-9.88-12.79-1.05-28.38-1.02-46.5-1.02v66.67ZM733.33,240c0-18.12.03-33.71-1.02-46.5-1.08-13.18-3.45-26.29-9.88-38.9l-59.4,30.27c.84,1.65,2.1,5.01,2.84,14.06.77,9.44.8,21.85.8,41.07h66.67ZM648.47,170.3c6.27,3.2,11.37,8.3,14.57,14.57l59.4-30.27c-9.59-18.82-24.88-34.11-43.7-43.7l-30.27,59.4ZM206.67,100c-18.12,0-33.71-.03-46.5,1.02-13.18,1.08-26.29,3.45-38.9,9.88l30.27,59.4c1.65-.84,5.01-2.1,14.06-2.84,9.44-.77,21.85-.8,41.07-.8v-66.67ZM133.33,240c0-19.22.03-31.63.8-41.07.74-9.06,2-12.41,2.84-14.06l-59.4-30.27c-6.43,12.61-8.8,25.72-9.88,38.9-1.05,12.79-1.02,28.38-1.02,46.5h66.67ZM121.27,110.9c-18.82,9.59-34.11,24.89-43.7,43.7l59.4,30.27c3.2-6.27,8.3-11.37,14.57-14.57l-30.27-59.4Z"/>
</svg>