<?xml version="1.0" encoding="UTF-8"?>
<svg id="Layer_1" xmlns="http://www.w3.org/2000/svg" version="1.1" viewBox="0 0 800 800">
  <!-- Generator: Adobe Illustrator 29.6.1, SVG Export Plug-In . SVG Version: 2.1.1 Build 9)  -->
  <defs>
    <style>
      .st0 {
        fill: none;
        stroke: #fff;
        stroke-linecap: round;
        stroke-linejoin: round;
        stroke-width: 66.67px;
      }
    </style>
  </defs>
  <path class="st0" d="M500,400c0,55.23-44.77,100-100,100s-100-44.77-100-100,44.77-100,100-100,100,44.77,100,100Z"/>
  <path class="st0" d="M430.15,102c-6.86-2-14.62-2-30.15-2s-23.29,0-30.15,2c-10.04,2.93-18.91,8.93-25.36,17.17-4.41,5.63-7.29,12.84-13.06,27.25-8.29,20.73-31.3,31.4-52.48,24.34l-19.03-6.34c-13.5-4.5-20.24-6.75-26.86-7.13-9.72-.57-19.39,1.72-27.83,6.57-5.75,3.3-10.78,8.33-20.83,18.39-10.69,10.69-16.04,16.04-19.43,22.14-4.99,8.96-7.1,19.25-6.05,29.45.72,6.95,3.53,13.97,9.14,28,8.79,21.99.33,47.1-19.97,59.29l-9.25,5.55c-14.16,8.5-21.24,12.75-26.39,18.6-4.55,5.18-7.98,11.24-10.08,17.81-2.37,7.42-2.37,15.76-2.37,32.44,0,19.75,0,29.63,3.15,38.08,2.79,7.47,7.32,14.16,13.22,19.53,6.68,6.07,15.76,9.7,33.91,16.96,18.56,7.42,28.11,28.02,21.79,46.98l-7.17,21.52c-4.97,14.9-7.45,22.35-7.68,29.67-.27,8.8,1.79,17.52,5.97,25.27,3.48,6.45,9.03,12,20.14,23.11,11.11,11.11,16.66,16.66,23.11,20.14,7.75,4.18,16.47,6.24,25.27,5.97,7.32-.23,14.77-2.71,29.67-7.68l17.57-5.86c21.18-7.06,44.19,3.61,52.48,24.34,5.77,14.42,8.65,21.63,13.06,27.25,6.45,8.23,15.32,14.24,25.36,17.17,6.86,2,14.62,2,30.15,2s23.29,0,30.15-2c10.04-2.93,18.91-8.94,25.36-17.17,4.41-5.63,7.29-12.84,13.06-27.25,8.29-20.73,31.3-31.4,52.47-24.33l17.55,5.85c14.9,4.97,22.36,7.45,29.68,7.68,8.8.27,17.52-1.79,25.27-5.97,6.45-3.48,12-9.03,23.11-20.14,11.11-11.11,16.66-16.66,20.14-23.11,4.18-7.75,6.24-16.47,5.97-25.27-.23-7.32-2.71-14.77-7.68-29.68l-7.17-21.5c-6.32-18.97,3.23-39.57,21.8-47,18.16-7.26,27.24-10.9,33.92-16.96,5.9-5.36,10.43-12.06,13.22-19.53,3.15-8.46,3.15-18.33,3.15-38.08,0-16.68,0-25.02-2.37-32.44-2.1-6.57-5.53-12.63-10.08-17.81-5.15-5.85-12.23-10.1-26.39-18.6l-9.26-5.56c-20.3-12.18-28.77-37.3-19.97-59.29,5.61-14.04,8.42-21.06,9.14-28,1.05-10.21-1.06-20.49-6.05-29.45-3.4-6.1-8.74-11.45-19.43-22.14-10.06-10.06-15.09-15.09-20.83-18.39-8.44-4.85-18.11-7.14-27.83-6.57-6.62.39-13.36,2.64-26.86,7.13l-19.01,6.34c-21.18,7.06-44.19-3.61-52.48-24.34-5.77-14.42-8.65-21.63-13.06-27.25-6.45-8.23-15.32-14.24-25.36-17.17Z"/>
</svg>