<?xml version="1.0" encoding="UTF-8"?>
<svg id="Layer_1" xmlns="http://www.w3.org/2000/svg" version="1.1" viewBox="0 0 800 800">
  <!-- Generator: Adobe Illustrator 29.6.1, SVG Export Plug-In . SVG Version: 2.1.1 Build 9)  -->
  <defs>
    <style>
      .st0 {
        fill: none;
        stroke: #fff;
        stroke-linecap: round;
        stroke-linejoin: round;
        stroke-width: 66.67px;
      }
    </style>
  </defs>
  <path class="st0" d="M433.33,100h-160c-37.34,0-56.01,0-70.27,7.27-12.54,6.39-22.74,16.59-29.13,29.13-7.27,14.26-7.27,32.93-7.27,70.27v386.67c0,37.34,0,56.01,7.27,70.27,6.39,12.54,16.59,22.74,29.13,29.13,14.26,7.27,32.93,7.27,70.27,7.27h60M433.33,100l200,200M433.33,100v146.67c0,18.67,0,28,3.63,35.13,3.2,6.27,8.29,11.37,14.57,14.57,7.13,3.63,16.46,3.63,35.13,3.63h146.67M633.33,300v33.33M300,566.67h83.33M300,433.33h166.67M300,300h33.33M466.67,700l67.5-13.5c5.88-1.18,8.83-1.77,11.57-2.84,2.44-.95,4.75-2.19,6.9-3.69,2.42-1.69,4.54-3.81,8.79-8.05l138.58-138.58c18.41-18.41,18.41-48.26,0-66.67s-48.26-18.41-66.67,0l-138.58,138.58c-4.25,4.25-6.37,6.37-8.05,8.79-1.5,2.14-2.74,4.46-3.69,6.9-1.08,2.74-1.67,5.69-2.84,11.57l-13.5,67.5Z"/>
</svg>